<svg width="32" height="32" viewBox="0 0 32 32" xmlns="http://www.w3.org/2000/svg">
  <!-- Shield outline -->
  <path d="M6 5 L26 5 L26 16 C26 21 22.5 25 16 27 C9.5 25 6 21 6 16 Z"
        fill="#111111"/>
  <!-- Flag stripes inside shield -->
  <path d="M8 7 H24 V11 H8 Z" fill="#ffffff"/>
  <path d="M8 11 H24 V16 H8 Z" fill="#1c8c3a"/>
  <path d="M8 16 H24 V21 H8 Z" fill="#c62828"/>
  <!-- Lion head circle -->
  <circle cx="15" cy="16" r="5.2" fill="#d69a2d" stroke="#111111" stroke-width="1"/>
  <!-- Mane (dark ring) -->
  <circle cx="15" cy="16" r="6.2" fill="none" stroke="#111111" stroke-width="1.6"/>
  <!-- Lion facial details -->
  <circle cx="13.5" cy="15" r="0.7" fill="#111111"/>
  <circle cx="16.5" cy="15" r="0.7" fill="#111111"/>
  <path d="M13 17.2 C14 18.4 16 18.4 17 17.2" fill="none" stroke="#111111" stroke-width="0.9" stroke-linecap="round"/>
  <path d="M14.5 15.8 H15.5" stroke="#111111" stroke-width="0.8" stroke-linecap="round"/>
  <!-- Small golden L symbol in shield corner -->
  <path d="M20.5 10 V8 H22.5 V9.2 H21.6 V11.8 H23 V13 H20.5 Z"
        fill="#f4c548" stroke="#111111" stroke-width="0.4" stroke-linejoin="round"/>
</svg>
